<svg xmlns="http://www.w3.org/2000/svg" viewBox="0 0 24 24" width="24" height="24" fill="none">
  <path d="M24 12.073c0-6.627-5.373-12-12-12s-12 5.373-12 12c0 5.989 4.388 10.954 10.125 11.854v-8.385H7.078v-3.47h3.047V9.43c0-3.007 1.792-4.669 4.533-4.669 1.312 0 2.686.235 2.686.235v2.953H15.83c-1.491 0-1.956.925-1.956 1.874v2.25h3.328l-.532 3.47h-2.796v8.385C19.612 23.027 24 18.062 24 12.073z" fill="#1877F2"/>
  <path d="M16.671 15.508l.532-3.47h-3.328v-2.25c0-.949.465-1.874 1.956-1.874h1.513V4.962s-1.374-.235-2.686-.235c-2.741 0-4.533 1.662-4.533 4.669v2.672H7.078v3.47h3.047v8.384c.61.096 1.236.146 1.875.146.638 0 1.264-.05 1.875-.146v-8.384h2.796z" fill="#FFFFFF"/>
</svg> 