<svg xmlns="http://www.w3.org/2000/svg" viewBox="0 0 24 24" width="24" height="24" fill="none" stroke="currentColor" stroke-width="2" stroke-linecap="round" stroke-linejoin="round">
  <path d="M12 2C6.48 2 2 6.48 2 12s4.48 10 10 10 10-4.48 10-10S17.52 2 12 2z" fill="#FFFFFF" stroke="none"></path>
  <path d="M21.8 10.2h-10v3.8h5.7c-.6 2.4-2.7 3.8-5.7 3.8-3.4 0-6.2-2.8-6.2-6.2s2.8-6.2 6.2-6.2c1.5 0 2.9.5 4 1.6l2.7-2.7C16.4 2.5 14.3 1.8 12 1.8 6.6 1.8 2.2 6.2 2.2 11.6s4.4 9.8 9.8 9.8c4.9 0 9.4-3.6 9.4-9.8 0-.4 0-.8-.1-1.4z" fill="#4285F4" stroke="none"></path>
  <path d="M6.8 14.2l3.1 2.4c.9-2.7 3.5-4.6 6.5-4.6.9 0 1.8.2 2.6.5l2.9-2.9c-1.5-1.1-3.3-1.8-5.5-1.8-4.2 0-7.9 2.6-9.6 6.4z" fill="#34A853" stroke="none"></path>
  <path d="M12 21.4c2.8 0 5.2-1 7-2.8l-3.2-2.5c-.9.6-2 1-3.8 1-2.9 0-5.4-2-6.2-4.7L2.2 14.9c1.5 4 5.5 6.8 9.8 6.5z" fill="#FBBC05" stroke="none"></path>
  <path d="M12 7.2c1.6 0 3 .5 4.1 1.6l2.7-2.7C16.9 4.2 14.6 3 12 3 8 3 4.5 5.3 2.9 8.8l3.2 2.5c.8-2.3 3-4.1 5.9-4.1z" fill="#EA4335" stroke="none"></path>
</svg> 