<svg xmlns="http://www.w3.org/2000/svg" viewBox="0 0 24 24" fill="#FF9900">
  <path d="M14.18 13.84C14.32 13.76 14.48 13.76 14.62 13.84L17.36 15.76C17.5 15.84 17.58 15.98 17.58 16.16C17.58 16.34 17.5 16.48 17.36 16.56L14.62 18.48C14.48 18.56 14.32 18.56 14.18 18.48C14.04 18.4 13.96 18.26 13.96 18.08V16.06V14.24C13.96 14.06 14.04 13.92 14.18 13.84Z" />
  <path d="M18.22 19.26C18.32 19.26 18.44 19.24 18.54 19.2C18.64 19.16 18.74 19.1 18.8 19.02C18.86 18.94 18.9 18.84 18.9 18.74C18.9 18.64 18.86 18.54 18.8 18.46C18.72 18.4 18.64 18.32 18.54 18.28C18.44 18.24 18.32 18.22 18.22 18.22C18.12 18.22 18 18.24 17.9 18.28C17.8 18.32 17.72 18.38 17.66 18.46C17.6 18.54 17.56 18.64 17.56 18.74C17.56 18.84 17.6 18.94 17.66 19.02C17.72 19.1 17.82 19.16 17.9 19.2C18 19.24 18.12 19.26 18.22 19.26Z" />
  <path d="M21.04 19.8C20.52 20.18 19.7 20.36 18.58 20.36C16.46 20.36 14.86 19.76 13.7 18.56C13.68 18.54 13.68 18.52 13.68 18.5C13.68 18.48 13.68 18.46 13.7 18.44C13.72 18.42 13.74 18.42 13.76 18.42C13.78 18.42 13.8 18.42 13.82 18.44C14.64 18.98 15.6 19.26 16.72 19.26C18.34 19.26 19.8 18.78 21.08 17.8C21.12 17.76 21.14 17.76 21.16 17.76C21.18 17.76 21.2 17.78 21.22 17.8C21.24 17.82 21.24 17.86 21.24 17.88C21.24 17.9 21.22 17.92 21.2 17.94C21.14 18.26 21.04 18.56 20.92 18.84C20.72 19.22 20.42 19.54 21.04 19.8Z" />
  <path d="M12.44 17.44L12.24 17.64C11.28 18.52 10.06 18.96 8.6 18.96C7.58 18.96 6.68 18.76 5.9 18.36C5.14 17.96 4.54 17.42 4.1 16.72C3.66 16.04 3.44 15.24 3.44 14.36C3.44 13.4 3.7 12.58 4.2 11.9C4.72 11.22 5.44 10.68 6.36 10.3C7.3 9.92 8.36 9.74 9.54 9.74C9.98 9.74 10.42 9.76 10.86 9.8C10.86 9.24 10.8 8.8 10.66 8.5C10.54 8.2 10.34 7.98 10.06 7.86C9.78 7.74 9.42 7.66 8.96 7.66C8.52 7.66 8.08 7.74 7.64 7.9C7.2 8.04 6.7 8.28 6.14 8.6C6.08 8.64 6.04 8.66 6 8.66C5.98 8.66 5.96 8.64 5.92 8.6C5.88 8.56 5.86 8.52 5.86 8.44V8.1C5.86 8.06 5.86 8.02 5.88 7.98C5.9 7.94 5.92 7.9 5.96 7.88C6.52 7.5 7.08 7.22 7.62 7.04C8.18 6.86 8.76 6.76 9.34 6.76C10.04 6.76 10.64 6.88 11.12 7.1C11.6 7.32 11.98 7.66 12.22 8.12C12.46 8.58 12.58 9.14 12.58 9.82V15.5C12.58 15.58 12.56 15.66 12.5 15.72C12.46 15.78 12.4 15.8 12.32 15.8H11.08C11 15.8 10.94 15.78 10.88 15.72C10.84 15.68 10.82 15.58 10.8 15.5L10.7 14.76C10.7 14.78 10.7 14.78 10.7 14.8V14.76L10.74 14.8C9.92 15.64 8.92 16.06 7.74 16.06C7.06 16.06 6.46 15.94 5.94 15.7C5.42 15.46 5.02 15.12 4.72 14.7C4.42 14.28 4.28 13.8 4.28 13.26C4.28 12.64 4.44 12.1 4.78 11.66C5.12 11.22 5.6 10.88 6.24 10.64C6.88 10.4 7.64 10.28 8.5 10.28C9.26 10.28 10.02 10.36 10.78 10.52L10.68 10.62C10.64 10.66 10.62 10.7 10.62 10.74V11.52C10.62 11.6 10.6 11.66 10.58 11.7V12.34L10.6 12.9L12.1 17.02C12.14 17.1 12.18 17.16 12.22 17.22C12.26 17.28 12.3 17.34 12.36 17.38C12.38 17.4 12.42 17.42 12.44 17.44ZM10.84 11.04C10.84 11.02 10.84 11.02 10.84 11V11.04C10.38 10.96 9.92 10.92 9.46 10.92C8.7 10.92 8.08 11.04 7.62 11.3C7.16 11.56 6.82 11.9 6.62 12.32C6.42 12.74 6.32 13.16 6.32 13.58C6.32 14.16 6.48 14.62 6.82 14.96C7.16 15.28 7.62 15.44 8.18 15.44C8.62 15.44 9.02 15.38 9.4 15.24C9.78 15.12 10.16 14.94 10.54 14.7L10.92 14.32V11.04H10.84Z" />
  <path d="M19.28 13.26L19.62 12.76C19.62 12.76 19.64 12.74 19.66 12.74C19.68 12.74 19.7 12.76 19.72 12.78C19.74 12.8 19.74 12.82 19.74 12.84C19.74 12.86 19.72 12.86 19.7 12.88C19.38 13.18 19.06 13.5 18.7 13.86C18.38 14.18 18.04 14.5 17.7 14.82C17.34 15.12 16.98 15.3 16.6 15.3C16.42 15.3 16.24 15.26 16.04 15.16C15.84 15.06 15.68 14.92 15.56 14.76C15.42 14.6 15.36 14.44 15.36 14.26L15.4 14.04C15.44 13.9 15.52 13.76 15.62 13.58C15.74 13.4 15.9 13.18 16.12 12.94L18.58 10.34C18.64 10.28 18.7 10.24 18.76 10.24H20.18C20.24 10.24 20.28 10.26 20.32 10.28C20.36 10.32 20.38 10.36 20.38 10.4C20.38 10.44 20.36 10.48 20.32 10.52L17.84 13.02C17.7 13.16 17.58 13.28 17.46 13.4C17.34 13.5 17.24 13.6 17.16 13.7C17.08 13.8 17.06 13.84 17.06 13.86C17.06 13.9 17.06 13.96 17.08 14C17.1 14.04 17.16 14.06 17.24 14.06C17.36 14.06 17.52 14 17.72 13.86C17.92 13.72 18.12 13.56 18.34 13.4C18.56 13.22 18.76 13.04 18.94 12.88L19.28 13.26Z" />
  <path d="M14.38 10.4C14.44 10.44 14.48 10.5 14.48 10.58C14.48 10.66 14.46 10.72 14.42 10.8C14.32 10.94 14.22 11.14 14.12 11.4C14.02 11.64 13.9 11.9 13.78 12.2C13.66 12.5 13.54 12.78 13.42 13.06C13.3 13.34 13.2 13.58 13.12 13.8C13.04 14 12.96 14.16 12.9 14.28C12.86 14.4 12.84 14.44 12.84 14.44C12.8 14.52 12.76 14.58 12.7 14.62C12.64 14.66 12.58 14.68 12.52 14.68H11.68C11.62 14.68 11.56 14.66 11.52 14.62C11.48 14.58 11.46 14.52 11.46 14.44C11.46 14.38 11.48 14.34 11.5 14.28C11.56 14.1 11.64 13.92 11.76 13.7C11.88 13.48 12 13.22 12.14 12.96C12.28 12.7 12.42 12.42 12.58 12.14C12.74 11.84 12.88 11.58 13 11.32C13.12 11.06 13.22 10.84 13.3 10.66C13.36 10.52 13.4 10.42 13.42 10.34C13.46 10.26 13.54 10.22 13.64 10.22H14.16C14.26 10.22 14.32 10.26 14.38 10.4Z" />
  <path d="M7.62 6.74L7.9 6.46C7.92 6.44 7.94 6.44 7.96 6.44C7.98 6.44 8 6.44 8.02 6.46C8.04 6.48 8.06 6.5 8.06 6.52C8.06 6.54 8.04 6.56 8.02 6.58C7.7 6.82 7.38 7.06 7.04 7.32C6.7 7.58 6.36 7.84 6.02 8.08C5.68 8.32 5.32 8.44 4.96 8.44C4.76 8.44 4.56 8.4 4.36 8.3C4.16 8.2 4 8.06 3.88 7.9C3.76 7.74 3.7 7.56 3.7 7.38C3.7 7.32 3.72 7.24 3.74 7.14C3.78 7.02 3.84 6.88 3.94 6.7C4.04 6.52 4.2 6.3 4.4 6.06L6.88 3.46C6.94 3.4 7 3.36 7.06 3.36H8.5C8.56 3.36 8.62 3.38 8.64 3.42C8.66 3.46 8.68 3.5 8.68 3.54C8.68 3.58 8.66 3.62 8.62 3.66L6.18 6.14C6.04 6.28 5.92 6.4 5.8 6.5C5.68 6.6 5.58 6.7 5.5 6.8C5.42 6.88 5.38 6.94 5.38 6.98C5.38 7.02 5.4 7.06 5.42 7.1C5.44 7.14 5.48 7.16 5.56 7.16C5.68 7.16 5.84 7.1 6.04 6.96C6.24 6.82 6.44 6.66 6.66 6.5C6.88 6.34 7.1 6.16 7.28 6L7.62 6.74Z" />
</svg> 