<svg xmlns="http://www.w3.org/2000/svg" viewBox="0 0 24 24">
  <path d="M4 12a8 8 0 1 1 16 0 8 8 0 0 1-16 0z" fill="#2874F0"/>
  <path d="M7.2 12c0 .066.005.13.013.192l.707-3.714h1.471l-.876 4.704c-.16.082-.024.166-.024.25 0 .745.604 1.349 1.349 1.349.232 0 .45-.059.64-.163l.757-4.026c.062-.332.353-.576.695-.576h1.024c.384 0 .695.312.695.695a.694.694 0 0 1-.695.695h-.695l-.63 3.356c-.067.38-.4.644-.784.644H9.08a1.88 1.88 0 0 1-1.88-1.88c0-.178.021-.352.061-.518l.623-3.326h.884L8.13 12.192A.694.694 0 0 0 7.9 12zm7.998-4.104h-1.47l-.714 3.79a.694.694 0 0 0-.695.696c0 .384.311.695.695.695h.695l-.63 3.356c-.072.38-.404.644-.785.644h-1.362a1.88 1.88 0 0 1-1.88-1.88c0-.022 0-.044.002-.065h-1.473a3.06 3.06 0 0 0 3.351 2.93h1.362c1.095 0 2.028-.764 2.262-1.833l.732-3.902a.694.694 0 0 0 .596-.69.694.694 0 0 0-.695-.695h-.695l.705-3.742zm.695-1.391c.384 0 .695.31.695.695a.694.694 0 0 1-.695.695.694.694 0 0 1-.695-.695c0-.384.311-.695.695-.695z" fill="#FFF"/>
</svg> 